<mxfile host="app.diagrams.net" modified="2023-10-25T19:01:55.920Z" agent="Mozilla/5.0 (Windows NT 10.0; Win64; x64; rv:109.0) Gecko/20100101 Firefox/118.0" etag="t0lYVJOiyzo8jc3v61YE" version="22.0.8" type="onedrive">
  <diagram id="R2lEEEUBdFMjLlhIrx00" name="Page-1">
    <mxGraphModel grid="1" page="1" gridSize="10" guides="1" tooltips="1" connect="1" arrows="1" fold="1" pageScale="1" pageWidth="850" pageHeight="1100" math="0" shadow="0" extFonts="Permanent Marker^https://fonts.googleapis.com/css?family=Permanent+Marker">
      <root>
        <mxCell id="0" />
        <mxCell id="1" parent="0" />
        <mxCell id="Dr9B3RsP0FkyBoj9PpPU-64" style="edgeStyle=orthogonalEdgeStyle;curved=1;rounded=0;orthogonalLoop=1;jettySize=auto;html=1;exitX=0.5;exitY=1;exitDx=0;exitDy=0;entryX=0.5;entryY=0;entryDx=0;entryDy=0;strokeColor=#736CA8;fontColor=#1A1A1A;" edge="1" parent="1" source="Dr9B3RsP0FkyBoj9PpPU-1" target="Dr9B3RsP0FkyBoj9PpPU-63">
          <mxGeometry relative="1" as="geometry" />
        </mxCell>
        <mxCell id="Dr9B3RsP0FkyBoj9PpPU-1" value="Rol de usuario" style="rounded=0;whiteSpace=wrap;html=1;labelBackgroundColor=none;fillColor=#5D7F99;strokeColor=#D0CEE2;fontColor=#1A1A1A;fontSize=16;fontStyle=1" vertex="1" parent="1">
          <mxGeometry x="-35" y="890" width="120" height="60" as="geometry" />
        </mxCell>
        <mxCell id="Dr9B3RsP0FkyBoj9PpPU-99" style="edgeStyle=orthogonalEdgeStyle;curved=1;rounded=0;orthogonalLoop=1;jettySize=auto;html=1;exitX=0;exitY=0.5;exitDx=0;exitDy=0;entryX=1;entryY=0.5;entryDx=0;entryDy=0;strokeColor=#736CA8;fontColor=#1A1A1A;" edge="1" parent="1" source="Dr9B3RsP0FkyBoj9PpPU-2" target="Dr9B3RsP0FkyBoj9PpPU-95">
          <mxGeometry relative="1" as="geometry" />
        </mxCell>
        <mxCell id="Dr9B3RsP0FkyBoj9PpPU-2" value="Región" style="rounded=0;whiteSpace=wrap;html=1;labelBackgroundColor=none;fillColor=#5D7F99;strokeColor=#D0CEE2;fontColor=#1A1A1A;fontSize=16;fontStyle=1" vertex="1" parent="1">
          <mxGeometry x="-35" y="-130" width="120" height="60" as="geometry" />
        </mxCell>
        <mxCell id="Dr9B3RsP0FkyBoj9PpPU-26" style="edgeStyle=orthogonalEdgeStyle;rounded=0;orthogonalLoop=1;jettySize=auto;html=1;exitX=0.5;exitY=0;exitDx=0;exitDy=0;entryX=0.5;entryY=1;entryDx=0;entryDy=0;strokeColor=#736CA8;fontColor=#1A1A1A;shape=link;" edge="1" parent="1" source="Dr9B3RsP0FkyBoj9PpPU-3" target="Dr9B3RsP0FkyBoj9PpPU-23">
          <mxGeometry relative="1" as="geometry" />
        </mxCell>
        <mxCell id="Dr9B3RsP0FkyBoj9PpPU-100" style="edgeStyle=orthogonalEdgeStyle;curved=1;rounded=0;orthogonalLoop=1;jettySize=auto;html=1;exitX=0;exitY=0.5;exitDx=0;exitDy=0;entryX=1;entryY=0.5;entryDx=0;entryDy=0;strokeColor=#736CA8;fontColor=#1A1A1A;" edge="1" parent="1" source="Dr9B3RsP0FkyBoj9PpPU-3" target="Dr9B3RsP0FkyBoj9PpPU-94">
          <mxGeometry relative="1" as="geometry" />
        </mxCell>
        <mxCell id="Dr9B3RsP0FkyBoj9PpPU-3" value="Comuna" style="rounded=0;whiteSpace=wrap;html=1;labelBackgroundColor=none;fillColor=#5D7F99;strokeColor=#D0CEE2;fontColor=#1A1A1A;fontSize=16;fontStyle=1" vertex="1" parent="1">
          <mxGeometry x="-35" y="90" width="120" height="60" as="geometry" />
        </mxCell>
        <mxCell id="Dr9B3RsP0FkyBoj9PpPU-24" style="edgeStyle=orthogonalEdgeStyle;rounded=0;orthogonalLoop=1;jettySize=auto;html=1;exitX=0.5;exitY=0;exitDx=0;exitDy=0;entryX=0.5;entryY=1;entryDx=0;entryDy=0;strokeColor=#736CA8;fontColor=#1A1A1A;shape=link;" edge="1" parent="1" source="Dr9B3RsP0FkyBoj9PpPU-4" target="Dr9B3RsP0FkyBoj9PpPU-22">
          <mxGeometry relative="1" as="geometry" />
        </mxCell>
        <mxCell id="Dr9B3RsP0FkyBoj9PpPU-101" style="edgeStyle=orthogonalEdgeStyle;curved=1;rounded=0;orthogonalLoop=1;jettySize=auto;html=1;exitX=0.25;exitY=0;exitDx=0;exitDy=0;entryX=1;entryY=0.5;entryDx=0;entryDy=0;strokeColor=#736CA8;fontColor=#1A1A1A;" edge="1" parent="1" source="Dr9B3RsP0FkyBoj9PpPU-4" target="Dr9B3RsP0FkyBoj9PpPU-96">
          <mxGeometry relative="1" as="geometry" />
        </mxCell>
        <mxCell id="Dr9B3RsP0FkyBoj9PpPU-102" style="edgeStyle=orthogonalEdgeStyle;curved=1;rounded=0;orthogonalLoop=1;jettySize=auto;html=1;exitX=0;exitY=0.25;exitDx=0;exitDy=0;entryX=1;entryY=0.5;entryDx=0;entryDy=0;strokeColor=#736CA8;fontColor=#1A1A1A;" edge="1" parent="1" source="Dr9B3RsP0FkyBoj9PpPU-4" target="Dr9B3RsP0FkyBoj9PpPU-97">
          <mxGeometry relative="1" as="geometry" />
        </mxCell>
        <mxCell id="Dr9B3RsP0FkyBoj9PpPU-4" value="Estación de bomberos" style="rounded=0;whiteSpace=wrap;html=1;labelBackgroundColor=none;fillColor=#5D7F99;strokeColor=#D0CEE2;fontColor=#1A1A1A;fontSize=16;fontStyle=1" vertex="1" parent="1">
          <mxGeometry x="-35" y="350" width="120" height="60" as="geometry" />
        </mxCell>
        <mxCell id="Dr9B3RsP0FkyBoj9PpPU-109" style="edgeStyle=orthogonalEdgeStyle;curved=1;rounded=0;orthogonalLoop=1;jettySize=auto;html=1;exitX=1;exitY=0.25;exitDx=0;exitDy=0;entryX=0;entryY=0.5;entryDx=0;entryDy=0;strokeColor=#736CA8;fontColor=#1A1A1A;" edge="1" parent="1" source="Dr9B3RsP0FkyBoj9PpPU-7" target="Dr9B3RsP0FkyBoj9PpPU-107">
          <mxGeometry relative="1" as="geometry" />
        </mxCell>
        <mxCell id="Dr9B3RsP0FkyBoj9PpPU-110" style="edgeStyle=orthogonalEdgeStyle;curved=1;rounded=0;orthogonalLoop=1;jettySize=auto;html=1;exitX=1;exitY=1;exitDx=0;exitDy=0;entryX=0;entryY=0.5;entryDx=0;entryDy=0;strokeColor=#736CA8;fontColor=#1A1A1A;" edge="1" parent="1" source="Dr9B3RsP0FkyBoj9PpPU-7" target="Dr9B3RsP0FkyBoj9PpPU-108">
          <mxGeometry relative="1" as="geometry" />
        </mxCell>
        <mxCell id="Dr9B3RsP0FkyBoj9PpPU-7" value="Estado" style="rounded=0;whiteSpace=wrap;html=1;labelBackgroundColor=none;fillColor=#5D7F99;strokeColor=#D0CEE2;fontColor=#1A1A1A;fontSize=16;fontStyle=1" vertex="1" parent="1">
          <mxGeometry x="1645" y="350" width="120" height="60" as="geometry" />
        </mxCell>
        <mxCell id="Dr9B3RsP0FkyBoj9PpPU-124" style="edgeStyle=orthogonalEdgeStyle;curved=1;rounded=0;orthogonalLoop=1;jettySize=auto;html=1;exitX=1;exitY=0;exitDx=0;exitDy=0;entryX=0;entryY=1;entryDx=0;entryDy=0;strokeColor=#736CA8;fontColor=#1A1A1A;" edge="1" parent="1" source="Dr9B3RsP0FkyBoj9PpPU-8" target="Dr9B3RsP0FkyBoj9PpPU-121">
          <mxGeometry relative="1" as="geometry" />
        </mxCell>
        <mxCell id="Dr9B3RsP0FkyBoj9PpPU-125" style="edgeStyle=orthogonalEdgeStyle;curved=1;rounded=0;orthogonalLoop=1;jettySize=auto;html=1;exitX=1;exitY=0.5;exitDx=0;exitDy=0;entryX=0;entryY=0.5;entryDx=0;entryDy=0;strokeColor=#736CA8;fontColor=#1A1A1A;" edge="1" parent="1" source="Dr9B3RsP0FkyBoj9PpPU-8" target="Dr9B3RsP0FkyBoj9PpPU-122">
          <mxGeometry relative="1" as="geometry" />
        </mxCell>
        <mxCell id="Dr9B3RsP0FkyBoj9PpPU-8" value="Tipo de unidad" style="rounded=0;whiteSpace=wrap;html=1;labelBackgroundColor=none;fillColor=#5D7F99;strokeColor=#D0CEE2;fontColor=#1A1A1A;fontSize=16;fontStyle=1" vertex="1" parent="1">
          <mxGeometry x="345" y="52.5" width="120" height="60" as="geometry" />
        </mxCell>
        <mxCell id="Dr9B3RsP0FkyBoj9PpPU-35" style="edgeStyle=orthogonalEdgeStyle;rounded=0;orthogonalLoop=1;jettySize=auto;html=1;exitX=1;exitY=0.5;exitDx=0;exitDy=0;entryX=0;entryY=0.5;entryDx=0;entryDy=0;strokeColor=#736CA8;fontColor=#1A1A1A;shape=link;" edge="1" parent="1" source="Dr9B3RsP0FkyBoj9PpPU-9" target="Dr9B3RsP0FkyBoj9PpPU-34">
          <mxGeometry relative="1" as="geometry" />
        </mxCell>
        <mxCell id="Dr9B3RsP0FkyBoj9PpPU-84" style="edgeStyle=none;shape=link;rounded=0;orthogonalLoop=1;jettySize=auto;html=1;exitX=0.5;exitY=1;exitDx=0;exitDy=0;entryX=0.5;entryY=0;entryDx=0;entryDy=0;strokeColor=#736CA8;fontColor=#1A1A1A;" edge="1" parent="1" source="Dr9B3RsP0FkyBoj9PpPU-9" target="Dr9B3RsP0FkyBoj9PpPU-83">
          <mxGeometry relative="1" as="geometry" />
        </mxCell>
        <mxCell id="Dr9B3RsP0FkyBoj9PpPU-135" style="edgeStyle=orthogonalEdgeStyle;curved=1;rounded=0;orthogonalLoop=1;jettySize=auto;html=1;exitX=0.25;exitY=1;exitDx=0;exitDy=0;entryX=0.5;entryY=0;entryDx=0;entryDy=0;strokeColor=#736CA8;fontColor=#1A1A1A;" edge="1" parent="1" source="Dr9B3RsP0FkyBoj9PpPU-9" target="Dr9B3RsP0FkyBoj9PpPU-132">
          <mxGeometry relative="1" as="geometry" />
        </mxCell>
        <mxCell id="Dr9B3RsP0FkyBoj9PpPU-136" style="edgeStyle=orthogonalEdgeStyle;curved=1;rounded=0;orthogonalLoop=1;jettySize=auto;html=1;exitX=0;exitY=1;exitDx=0;exitDy=0;entryX=1;entryY=0;entryDx=0;entryDy=0;strokeColor=#736CA8;fontColor=#1A1A1A;" edge="1" parent="1" source="Dr9B3RsP0FkyBoj9PpPU-9" target="Dr9B3RsP0FkyBoj9PpPU-131">
          <mxGeometry relative="1" as="geometry" />
        </mxCell>
        <mxCell id="Dr9B3RsP0FkyBoj9PpPU-139" style="edgeStyle=orthogonalEdgeStyle;curved=1;rounded=0;orthogonalLoop=1;jettySize=auto;html=1;exitX=0.25;exitY=0;exitDx=0;exitDy=0;entryX=1;entryY=1;entryDx=0;entryDy=0;strokeColor=#736CA8;fontColor=#1A1A1A;" edge="1" parent="1" source="Dr9B3RsP0FkyBoj9PpPU-9" target="Dr9B3RsP0FkyBoj9PpPU-127">
          <mxGeometry relative="1" as="geometry" />
        </mxCell>
        <mxCell id="Dr9B3RsP0FkyBoj9PpPU-202" style="edgeStyle=orthogonalEdgeStyle;curved=1;rounded=0;orthogonalLoop=1;jettySize=auto;html=1;exitX=1;exitY=1;exitDx=0;exitDy=0;entryX=0;entryY=0;entryDx=0;entryDy=0;strokeColor=#736CA8;fontColor=#1A1A1A;" edge="1" parent="1" source="Dr9B3RsP0FkyBoj9PpPU-9" target="Dr9B3RsP0FkyBoj9PpPU-133">
          <mxGeometry relative="1" as="geometry" />
        </mxCell>
        <mxCell id="Dr9B3RsP0FkyBoj9PpPU-207" style="edgeStyle=orthogonalEdgeStyle;curved=1;rounded=0;orthogonalLoop=1;jettySize=auto;html=1;exitX=0;exitY=0;exitDx=0;exitDy=0;entryX=1;entryY=1;entryDx=0;entryDy=0;strokeColor=#736CA8;fontColor=#1A1A1A;" edge="1" parent="1" source="Dr9B3RsP0FkyBoj9PpPU-9" target="Dr9B3RsP0FkyBoj9PpPU-130">
          <mxGeometry relative="1" as="geometry" />
        </mxCell>
        <mxCell id="Dr9B3RsP0FkyBoj9PpPU-9" value="Unidad bomberil" style="rounded=0;whiteSpace=wrap;html=1;labelBackgroundColor=none;fillColor=#5D7F99;strokeColor=#D0CEE2;fontColor=#1A1A1A;fontSize=16;fontStyle=1" vertex="1" parent="1">
          <mxGeometry x="345" y="350" width="120" height="60" as="geometry" />
        </mxCell>
        <mxCell id="Dr9B3RsP0FkyBoj9PpPU-149" style="edgeStyle=orthogonalEdgeStyle;curved=1;rounded=0;orthogonalLoop=1;jettySize=auto;html=1;exitX=0.75;exitY=0;exitDx=0;exitDy=0;entryX=0.5;entryY=1;entryDx=0;entryDy=0;strokeColor=#736CA8;fontColor=#1A1A1A;" edge="1" parent="1" source="Dr9B3RsP0FkyBoj9PpPU-10" target="Dr9B3RsP0FkyBoj9PpPU-148">
          <mxGeometry relative="1" as="geometry" />
        </mxCell>
        <mxCell id="Dr9B3RsP0FkyBoj9PpPU-150" style="edgeStyle=orthogonalEdgeStyle;curved=1;rounded=0;orthogonalLoop=1;jettySize=auto;html=1;exitX=0.5;exitY=0;exitDx=0;exitDy=0;entryX=0.5;entryY=1;entryDx=0;entryDy=0;strokeColor=#736CA8;fontColor=#1A1A1A;" edge="1" parent="1" source="Dr9B3RsP0FkyBoj9PpPU-10" target="Dr9B3RsP0FkyBoj9PpPU-147">
          <mxGeometry relative="1" as="geometry" />
        </mxCell>
        <mxCell id="Dr9B3RsP0FkyBoj9PpPU-10" value="Gabeta" style="rounded=0;whiteSpace=wrap;html=1;labelBackgroundColor=none;fillColor=#5D7F99;strokeColor=#D0CEE2;fontColor=#1A1A1A;fontSize=16;fontStyle=1" vertex="1" parent="1">
          <mxGeometry x="715" y="350" width="120" height="60" as="geometry" />
        </mxCell>
        <mxCell id="Dr9B3RsP0FkyBoj9PpPU-236" style="edgeStyle=orthogonalEdgeStyle;curved=1;rounded=0;orthogonalLoop=1;jettySize=auto;html=1;exitX=0.75;exitY=1;exitDx=0;exitDy=0;entryX=0.5;entryY=0;entryDx=0;entryDy=0;strokeColor=#736CA8;fontColor=#1A1A1A;" edge="1" parent="1" source="Dr9B3RsP0FkyBoj9PpPU-11" target="Dr9B3RsP0FkyBoj9PpPU-235">
          <mxGeometry relative="1" as="geometry" />
        </mxCell>
        <mxCell id="Dr9B3RsP0FkyBoj9PpPU-237" style="edgeStyle=orthogonalEdgeStyle;curved=1;rounded=0;orthogonalLoop=1;jettySize=auto;html=1;exitX=0.25;exitY=1;exitDx=0;exitDy=0;entryX=0.5;entryY=0;entryDx=0;entryDy=0;strokeColor=#736CA8;fontColor=#1A1A1A;" edge="1" parent="1" source="Dr9B3RsP0FkyBoj9PpPU-11" target="Dr9B3RsP0FkyBoj9PpPU-234">
          <mxGeometry relative="1" as="geometry" />
        </mxCell>
        <mxCell id="Dr9B3RsP0FkyBoj9PpPU-11" value="Operación / emergencia" style="rounded=0;whiteSpace=wrap;html=1;labelBackgroundColor=none;fillColor=#5D7F99;strokeColor=#D0CEE2;fontColor=#1A1A1A;fontSize=16;fontStyle=1" vertex="1" parent="1">
          <mxGeometry x="345" y="650" width="120" height="60" as="geometry" />
        </mxCell>
        <mxCell id="Dr9B3RsP0FkyBoj9PpPU-77" style="edgeStyle=none;shape=link;rounded=0;orthogonalLoop=1;jettySize=auto;html=1;exitX=0.5;exitY=1;exitDx=0;exitDy=0;entryX=0.5;entryY=0;entryDx=0;entryDy=0;strokeColor=#736CA8;fontColor=#1A1A1A;" edge="1" parent="1" source="Dr9B3RsP0FkyBoj9PpPU-13" target="Dr9B3RsP0FkyBoj9PpPU-18">
          <mxGeometry relative="1" as="geometry" />
        </mxCell>
        <mxCell id="Dr9B3RsP0FkyBoj9PpPU-113" style="edgeStyle=none;shape=link;rounded=0;orthogonalLoop=1;jettySize=auto;html=1;exitX=1;exitY=0.5;exitDx=0;exitDy=0;entryX=0;entryY=0.5;entryDx=0;entryDy=0;strokeColor=#736CA8;fontColor=#1A1A1A;" edge="1" parent="1" source="Dr9B3RsP0FkyBoj9PpPU-13" target="Dr9B3RsP0FkyBoj9PpPU-82">
          <mxGeometry relative="1" as="geometry" />
        </mxCell>
        <mxCell id="Dr9B3RsP0FkyBoj9PpPU-115" style="edgeStyle=orthogonalEdgeStyle;curved=1;rounded=0;orthogonalLoop=1;jettySize=auto;html=1;exitX=0.25;exitY=0;exitDx=0;exitDy=0;entryX=1;entryY=1;entryDx=0;entryDy=0;strokeColor=#736CA8;fontColor=#1A1A1A;" edge="1" parent="1" source="Dr9B3RsP0FkyBoj9PpPU-13" target="Dr9B3RsP0FkyBoj9PpPU-43">
          <mxGeometry relative="1" as="geometry" />
        </mxCell>
        <mxCell id="Dr9B3RsP0FkyBoj9PpPU-116" style="edgeStyle=orthogonalEdgeStyle;curved=1;rounded=0;orthogonalLoop=1;jettySize=auto;html=1;exitX=0;exitY=0.75;exitDx=0;exitDy=0;entryX=1;entryY=0.5;entryDx=0;entryDy=0;strokeColor=#736CA8;fontColor=#1A1A1A;" edge="1" parent="1" source="Dr9B3RsP0FkyBoj9PpPU-13" target="Dr9B3RsP0FkyBoj9PpPU-46">
          <mxGeometry relative="1" as="geometry" />
        </mxCell>
        <mxCell id="Dr9B3RsP0FkyBoj9PpPU-117" style="edgeStyle=orthogonalEdgeStyle;curved=1;rounded=0;orthogonalLoop=1;jettySize=auto;html=1;exitX=0;exitY=0.25;exitDx=0;exitDy=0;entryX=1;entryY=1;entryDx=0;entryDy=0;strokeColor=#736CA8;fontColor=#1A1A1A;" edge="1" parent="1" source="Dr9B3RsP0FkyBoj9PpPU-13" target="Dr9B3RsP0FkyBoj9PpPU-44">
          <mxGeometry relative="1" as="geometry" />
        </mxCell>
        <mxCell id="Dr9B3RsP0FkyBoj9PpPU-118" style="edgeStyle=orthogonalEdgeStyle;curved=1;rounded=0;orthogonalLoop=1;jettySize=auto;html=1;exitX=0;exitY=0.5;exitDx=0;exitDy=0;entryX=1;entryY=1;entryDx=0;entryDy=0;strokeColor=#736CA8;fontColor=#1A1A1A;" edge="1" parent="1" source="Dr9B3RsP0FkyBoj9PpPU-13" target="Dr9B3RsP0FkyBoj9PpPU-45">
          <mxGeometry relative="1" as="geometry" />
        </mxCell>
        <mxCell id="Dr9B3RsP0FkyBoj9PpPU-119" style="edgeStyle=orthogonalEdgeStyle;curved=1;rounded=0;orthogonalLoop=1;jettySize=auto;html=1;exitX=0;exitY=1;exitDx=0;exitDy=0;entryX=1;entryY=0.5;entryDx=0;entryDy=0;strokeColor=#736CA8;fontColor=#1A1A1A;" edge="1" parent="1" source="Dr9B3RsP0FkyBoj9PpPU-13" target="Dr9B3RsP0FkyBoj9PpPU-50">
          <mxGeometry relative="1" as="geometry" />
        </mxCell>
        <mxCell id="Dr9B3RsP0FkyBoj9PpPU-120" style="edgeStyle=orthogonalEdgeStyle;curved=1;rounded=0;orthogonalLoop=1;jettySize=auto;html=1;exitX=0.25;exitY=1;exitDx=0;exitDy=0;entryX=1;entryY=0.5;entryDx=0;entryDy=0;strokeColor=#736CA8;fontColor=#1A1A1A;" edge="1" parent="1" source="Dr9B3RsP0FkyBoj9PpPU-13" target="Dr9B3RsP0FkyBoj9PpPU-49">
          <mxGeometry relative="1" as="geometry" />
        </mxCell>
        <mxCell id="Dr9B3RsP0FkyBoj9PpPU-13" value="Usuario" style="rounded=0;whiteSpace=wrap;html=1;labelBackgroundColor=none;fillColor=#5D7F99;strokeColor=#D0CEE2;fontColor=#1A1A1A;fontSize=16;fontStyle=1" vertex="1" parent="1">
          <mxGeometry x="-35" y="650" width="120" height="60" as="geometry" />
        </mxCell>
        <mxCell id="Dr9B3RsP0FkyBoj9PpPU-157" style="edgeStyle=orthogonalEdgeStyle;curved=1;rounded=0;orthogonalLoop=1;jettySize=auto;html=1;exitX=0.5;exitY=0;exitDx=0;exitDy=0;entryX=0.5;entryY=1;entryDx=0;entryDy=0;strokeColor=#736CA8;fontColor=#1A1A1A;" edge="1" parent="1" source="Dr9B3RsP0FkyBoj9PpPU-14" target="Dr9B3RsP0FkyBoj9PpPU-152">
          <mxGeometry relative="1" as="geometry" />
        </mxCell>
        <mxCell id="Dr9B3RsP0FkyBoj9PpPU-14" value="Programa de mantenimiento" style="rounded=0;whiteSpace=wrap;html=1;labelBackgroundColor=none;fillColor=#5D7F99;strokeColor=#D0CEE2;fontColor=#1A1A1A;fontSize=16;fontStyle=1" vertex="1" parent="1">
          <mxGeometry x="1145" y="-18" width="120" height="60" as="geometry" />
        </mxCell>
        <mxCell id="Dr9B3RsP0FkyBoj9PpPU-66" style="edgeStyle=none;shape=link;rounded=0;orthogonalLoop=1;jettySize=auto;html=1;exitX=0.5;exitY=0;exitDx=0;exitDy=0;entryX=0.5;entryY=1;entryDx=0;entryDy=0;strokeColor=#736CA8;fontColor=#1A1A1A;" edge="1" parent="1" source="Dr9B3RsP0FkyBoj9PpPU-15" target="Dr9B3RsP0FkyBoj9PpPU-65">
          <mxGeometry relative="1" as="geometry" />
        </mxCell>
        <mxCell id="Dr9B3RsP0FkyBoj9PpPU-90" style="edgeStyle=none;shape=link;rounded=0;orthogonalLoop=1;jettySize=auto;html=1;exitX=1;exitY=0.5;exitDx=0;exitDy=0;strokeColor=#736CA8;fontColor=#1A1A1A;" edge="1" parent="1" source="Dr9B3RsP0FkyBoj9PpPU-15" target="Dr9B3RsP0FkyBoj9PpPU-87">
          <mxGeometry relative="1" as="geometry" />
        </mxCell>
        <mxCell id="Dr9B3RsP0FkyBoj9PpPU-178" style="edgeStyle=orthogonalEdgeStyle;rounded=0;orthogonalLoop=1;jettySize=auto;html=1;exitX=0.25;exitY=0;exitDx=0;exitDy=0;entryX=1;entryY=1;entryDx=0;entryDy=0;strokeColor=#736CA8;fontColor=#1A1A1A;curved=1;" edge="1" parent="1" source="Dr9B3RsP0FkyBoj9PpPU-15" target="Dr9B3RsP0FkyBoj9PpPU-164">
          <mxGeometry relative="1" as="geometry" />
        </mxCell>
        <mxCell id="Dr9B3RsP0FkyBoj9PpPU-181" style="edgeStyle=orthogonalEdgeStyle;rounded=0;orthogonalLoop=1;jettySize=auto;html=1;exitX=0;exitY=0.75;exitDx=0;exitDy=0;entryX=1;entryY=0;entryDx=0;entryDy=0;strokeColor=#736CA8;fontColor=#1A1A1A;curved=1;" edge="1" parent="1" source="Dr9B3RsP0FkyBoj9PpPU-15" target="Dr9B3RsP0FkyBoj9PpPU-171">
          <mxGeometry relative="1" as="geometry" />
        </mxCell>
        <mxCell id="Dr9B3RsP0FkyBoj9PpPU-182" style="edgeStyle=orthogonalEdgeStyle;rounded=0;orthogonalLoop=1;jettySize=auto;html=1;exitX=0;exitY=1;exitDx=0;exitDy=0;entryX=1;entryY=0;entryDx=0;entryDy=0;strokeColor=#736CA8;fontColor=#1A1A1A;curved=1;" edge="1" parent="1" source="Dr9B3RsP0FkyBoj9PpPU-15" target="Dr9B3RsP0FkyBoj9PpPU-172">
          <mxGeometry relative="1" as="geometry" />
        </mxCell>
        <mxCell id="Dr9B3RsP0FkyBoj9PpPU-186" style="edgeStyle=orthogonalEdgeStyle;curved=1;rounded=0;orthogonalLoop=1;jettySize=auto;html=1;exitX=1;exitY=1;exitDx=0;exitDy=0;entryX=0;entryY=0.5;entryDx=0;entryDy=0;strokeColor=#736CA8;fontColor=#1A1A1A;" edge="1" parent="1" source="Dr9B3RsP0FkyBoj9PpPU-15" target="Dr9B3RsP0FkyBoj9PpPU-176">
          <mxGeometry relative="1" as="geometry" />
        </mxCell>
        <mxCell id="Dr9B3RsP0FkyBoj9PpPU-187" style="edgeStyle=orthogonalEdgeStyle;curved=1;rounded=0;orthogonalLoop=1;jettySize=auto;html=1;exitX=1;exitY=0.75;exitDx=0;exitDy=0;entryX=0;entryY=0.5;entryDx=0;entryDy=0;strokeColor=#736CA8;fontColor=#1A1A1A;" edge="1" parent="1" source="Dr9B3RsP0FkyBoj9PpPU-15" target="Dr9B3RsP0FkyBoj9PpPU-175">
          <mxGeometry relative="1" as="geometry" />
        </mxCell>
        <mxCell id="Dr9B3RsP0FkyBoj9PpPU-190" style="edgeStyle=orthogonalEdgeStyle;curved=1;rounded=0;orthogonalLoop=1;jettySize=auto;html=1;exitX=0.75;exitY=0;exitDx=0;exitDy=0;entryX=0;entryY=1;entryDx=0;entryDy=0;strokeColor=#736CA8;fontColor=#1A1A1A;" edge="1" parent="1" source="Dr9B3RsP0FkyBoj9PpPU-15" target="Dr9B3RsP0FkyBoj9PpPU-168">
          <mxGeometry relative="1" as="geometry" />
        </mxCell>
        <mxCell id="Dr9B3RsP0FkyBoj9PpPU-191" style="edgeStyle=orthogonalEdgeStyle;curved=1;rounded=0;orthogonalLoop=1;jettySize=auto;html=1;exitX=0.5;exitY=0;exitDx=0;exitDy=0;entryX=0.5;entryY=1;entryDx=0;entryDy=0;strokeColor=#736CA8;fontColor=#1A1A1A;" edge="1" parent="1" source="Dr9B3RsP0FkyBoj9PpPU-15" target="Dr9B3RsP0FkyBoj9PpPU-167">
          <mxGeometry relative="1" as="geometry" />
        </mxCell>
        <mxCell id="Dr9B3RsP0FkyBoj9PpPU-214" style="edgeStyle=orthogonalEdgeStyle;curved=1;rounded=0;orthogonalLoop=1;jettySize=auto;html=1;exitX=0;exitY=0;exitDx=0;exitDy=0;entryX=1;entryY=1;entryDx=0;entryDy=0;strokeColor=#736CA8;fontColor=#1A1A1A;" edge="1" parent="1" source="Dr9B3RsP0FkyBoj9PpPU-15" target="Dr9B3RsP0FkyBoj9PpPU-166">
          <mxGeometry relative="1" as="geometry" />
        </mxCell>
        <mxCell id="Dr9B3RsP0FkyBoj9PpPU-219" style="edgeStyle=orthogonalEdgeStyle;curved=1;rounded=0;orthogonalLoop=1;jettySize=auto;html=1;exitX=1;exitY=0;exitDx=0;exitDy=0;entryX=0;entryY=0.5;entryDx=0;entryDy=0;strokeColor=#736CA8;fontColor=#1A1A1A;" edge="1" parent="1" source="Dr9B3RsP0FkyBoj9PpPU-15" target="Dr9B3RsP0FkyBoj9PpPU-170">
          <mxGeometry relative="1" as="geometry" />
        </mxCell>
        <mxCell id="Dr9B3RsP0FkyBoj9PpPU-226" style="edgeStyle=orthogonalEdgeStyle;curved=1;rounded=0;orthogonalLoop=1;jettySize=auto;html=1;exitX=1;exitY=1;exitDx=0;exitDy=0;entryX=0;entryY=0;entryDx=0;entryDy=0;strokeColor=#736CA8;fontColor=#1A1A1A;" edge="1" parent="1" source="Dr9B3RsP0FkyBoj9PpPU-15" target="Dr9B3RsP0FkyBoj9PpPU-177">
          <mxGeometry relative="1" as="geometry" />
        </mxCell>
        <mxCell id="Vi23y6AT9LJgRPBtpvE8-5" style="edgeStyle=orthogonalEdgeStyle;shape=link;rounded=0;orthogonalLoop=1;jettySize=auto;html=1;exitX=0.75;exitY=1;exitDx=0;exitDy=0;entryX=0.5;entryY=0;entryDx=0;entryDy=0;" edge="1" parent="1" source="Dr9B3RsP0FkyBoj9PpPU-15" target="Vi23y6AT9LJgRPBtpvE8-3">
          <mxGeometry relative="1" as="geometry" />
        </mxCell>
        <mxCell id="Vi23y6AT9LJgRPBtpvE8-11" style="edgeStyle=orthogonalEdgeStyle;shape=link;rounded=0;orthogonalLoop=1;jettySize=auto;html=1;exitX=0.25;exitY=1;exitDx=0;exitDy=0;" edge="1" parent="1" source="Dr9B3RsP0FkyBoj9PpPU-15" target="Dr9B3RsP0FkyBoj9PpPU-71">
          <mxGeometry relative="1" as="geometry" />
        </mxCell>
        <mxCell id="Dr9B3RsP0FkyBoj9PpPU-15" value="Inventario" style="rounded=0;whiteSpace=wrap;html=1;labelBackgroundColor=none;fillColor=#5D7F99;strokeColor=#D0CEE2;fontColor=#1A1A1A;fontSize=16;fontStyle=1" vertex="1" parent="1">
          <mxGeometry x="1145" y="350" width="120" height="60" as="geometry" />
        </mxCell>
        <mxCell id="Dr9B3RsP0FkyBoj9PpPU-232" style="edgeStyle=orthogonalEdgeStyle;curved=1;rounded=0;orthogonalLoop=1;jettySize=auto;html=1;exitX=0;exitY=0;exitDx=0;exitDy=0;entryX=1;entryY=0.5;entryDx=0;entryDy=0;strokeColor=#736CA8;fontColor=#1A1A1A;" edge="1" parent="1" source="Dr9B3RsP0FkyBoj9PpPU-17" target="Dr9B3RsP0FkyBoj9PpPU-229">
          <mxGeometry relative="1" as="geometry" />
        </mxCell>
        <mxCell id="Dr9B3RsP0FkyBoj9PpPU-233" style="edgeStyle=orthogonalEdgeStyle;curved=1;rounded=0;orthogonalLoop=1;jettySize=auto;html=1;exitX=0;exitY=0.75;exitDx=0;exitDy=0;entryX=1;entryY=0.5;entryDx=0;entryDy=0;strokeColor=#736CA8;fontColor=#1A1A1A;" edge="1" parent="1" source="Dr9B3RsP0FkyBoj9PpPU-17" target="Dr9B3RsP0FkyBoj9PpPU-230">
          <mxGeometry relative="1" as="geometry" />
        </mxCell>
        <mxCell id="Dr9B3RsP0FkyBoj9PpPU-17" value="Categoría" style="rounded=0;whiteSpace=wrap;html=1;labelBackgroundColor=none;fillColor=#5D7F99;strokeColor=#D0CEE2;fontColor=#1A1A1A;fontSize=16;fontStyle=1" vertex="1" parent="1">
          <mxGeometry x="1080" y="631" width="120" height="60" as="geometry" />
        </mxCell>
        <mxCell id="Dr9B3RsP0FkyBoj9PpPU-78" style="edgeStyle=none;shape=link;rounded=0;orthogonalLoop=1;jettySize=auto;html=1;exitX=0.5;exitY=1;exitDx=0;exitDy=0;entryX=0.5;entryY=0;entryDx=0;entryDy=0;strokeColor=#736CA8;fontColor=#1A1A1A;" edge="1" parent="1" source="Dr9B3RsP0FkyBoj9PpPU-18" target="Dr9B3RsP0FkyBoj9PpPU-1">
          <mxGeometry relative="1" as="geometry" />
        </mxCell>
        <mxCell id="Dr9B3RsP0FkyBoj9PpPU-18" value="Tiene" style="rhombus;whiteSpace=wrap;html=1;strokeColor=#C73500;fillColor=#fa6800;fontColor=#000000;fontSize=13;" vertex="1" parent="1">
          <mxGeometry x="-15" y="760" width="80" height="80" as="geometry" />
        </mxCell>
        <mxCell id="Dr9B3RsP0FkyBoj9PpPU-25" style="edgeStyle=orthogonalEdgeStyle;rounded=0;orthogonalLoop=1;jettySize=auto;html=1;exitX=0.5;exitY=0;exitDx=0;exitDy=0;entryX=0.5;entryY=1;entryDx=0;entryDy=0;strokeColor=#736CA8;fontColor=#1A1A1A;shape=link;" edge="1" parent="1" source="Dr9B3RsP0FkyBoj9PpPU-22" target="Dr9B3RsP0FkyBoj9PpPU-3">
          <mxGeometry relative="1" as="geometry" />
        </mxCell>
        <mxCell id="Dr9B3RsP0FkyBoj9PpPU-22" value="Se ubica" style="rhombus;whiteSpace=wrap;html=1;strokeColor=#C73500;fillColor=#fa6800;fontColor=#000000;fontSize=13;" vertex="1" parent="1">
          <mxGeometry x="-15" y="200" width="80" height="80" as="geometry" />
        </mxCell>
        <mxCell id="Dr9B3RsP0FkyBoj9PpPU-27" style="edgeStyle=orthogonalEdgeStyle;rounded=0;orthogonalLoop=1;jettySize=auto;html=1;exitX=0.5;exitY=0;exitDx=0;exitDy=0;entryX=0.5;entryY=1;entryDx=0;entryDy=0;strokeColor=#736CA8;fontColor=#1A1A1A;shape=link;" edge="1" parent="1" source="Dr9B3RsP0FkyBoj9PpPU-23" target="Dr9B3RsP0FkyBoj9PpPU-2">
          <mxGeometry relative="1" as="geometry" />
        </mxCell>
        <mxCell id="Dr9B3RsP0FkyBoj9PpPU-23" value="Se ubica" style="rhombus;whiteSpace=wrap;html=1;strokeColor=#C73500;fillColor=#fa6800;fontColor=#000000;fontSize=13;" vertex="1" parent="1">
          <mxGeometry x="-15" y="-30" width="80" height="80" as="geometry" />
        </mxCell>
        <mxCell id="Dr9B3RsP0FkyBoj9PpPU-29" style="edgeStyle=orthogonalEdgeStyle;rounded=0;orthogonalLoop=1;jettySize=auto;html=1;exitX=0;exitY=0.5;exitDx=0;exitDy=0;entryX=1;entryY=0.5;entryDx=0;entryDy=0;strokeColor=#736CA8;fontColor=#1A1A1A;shape=link;" edge="1" parent="1" source="Dr9B3RsP0FkyBoj9PpPU-28" target="Dr9B3RsP0FkyBoj9PpPU-4">
          <mxGeometry relative="1" as="geometry" />
        </mxCell>
        <mxCell id="Dr9B3RsP0FkyBoj9PpPU-30" style="edgeStyle=orthogonalEdgeStyle;rounded=0;orthogonalLoop=1;jettySize=auto;html=1;exitX=1;exitY=0.5;exitDx=0;exitDy=0;entryX=0;entryY=0.5;entryDx=0;entryDy=0;strokeColor=#736CA8;fontColor=#1A1A1A;shape=link;" edge="1" parent="1" source="Dr9B3RsP0FkyBoj9PpPU-28" target="Dr9B3RsP0FkyBoj9PpPU-9">
          <mxGeometry relative="1" as="geometry" />
        </mxCell>
        <mxCell id="Dr9B3RsP0FkyBoj9PpPU-28" value="Pertenece" style="rhombus;whiteSpace=wrap;html=1;strokeColor=#C73500;fillColor=#fa6800;fontColor=#000000;fontSize=13;" vertex="1" parent="1">
          <mxGeometry x="166" y="340" width="80" height="80" as="geometry" />
        </mxCell>
        <mxCell id="Dr9B3RsP0FkyBoj9PpPU-32" style="edgeStyle=orthogonalEdgeStyle;rounded=0;orthogonalLoop=1;jettySize=auto;html=1;exitX=0.5;exitY=0;exitDx=0;exitDy=0;entryX=0.5;entryY=1;entryDx=0;entryDy=0;strokeColor=#736CA8;fontColor=#1A1A1A;shape=link;" edge="1" parent="1" source="Dr9B3RsP0FkyBoj9PpPU-31" target="Dr9B3RsP0FkyBoj9PpPU-4">
          <mxGeometry relative="1" as="geometry" />
        </mxCell>
        <mxCell id="Dr9B3RsP0FkyBoj9PpPU-33" style="edgeStyle=orthogonalEdgeStyle;rounded=0;orthogonalLoop=1;jettySize=auto;html=1;exitX=0.5;exitY=1;exitDx=0;exitDy=0;entryX=0.5;entryY=0;entryDx=0;entryDy=0;strokeColor=#736CA8;fontColor=#1A1A1A;shape=link;" edge="1" parent="1" source="Dr9B3RsP0FkyBoj9PpPU-31" target="Dr9B3RsP0FkyBoj9PpPU-13">
          <mxGeometry relative="1" as="geometry" />
        </mxCell>
        <mxCell id="Dr9B3RsP0FkyBoj9PpPU-31" value="Pertenece" style="rhombus;whiteSpace=wrap;html=1;strokeColor=#C73500;fillColor=#fa6800;fontColor=#000000;fontSize=13;" vertex="1" parent="1">
          <mxGeometry x="-15" y="510" width="80" height="80" as="geometry" />
        </mxCell>
        <mxCell id="Dr9B3RsP0FkyBoj9PpPU-36" style="edgeStyle=orthogonalEdgeStyle;rounded=0;orthogonalLoop=1;jettySize=auto;html=1;exitX=1;exitY=0.5;exitDx=0;exitDy=0;entryX=0;entryY=0.5;entryDx=0;entryDy=0;strokeColor=#736CA8;fontColor=#1A1A1A;shape=link;" edge="1" parent="1" source="Dr9B3RsP0FkyBoj9PpPU-34" target="Dr9B3RsP0FkyBoj9PpPU-10">
          <mxGeometry relative="1" as="geometry" />
        </mxCell>
        <mxCell id="Dr9B3RsP0FkyBoj9PpPU-34" value="Pertenece" style="rhombus;whiteSpace=wrap;html=1;strokeColor=#C73500;fillColor=#fa6800;fontColor=#000000;fontSize=13;" vertex="1" parent="1">
          <mxGeometry x="545" y="340" width="80" height="80" as="geometry" />
        </mxCell>
        <mxCell id="Dr9B3RsP0FkyBoj9PpPU-39" style="edgeStyle=orthogonalEdgeStyle;shape=link;rounded=0;orthogonalLoop=1;jettySize=auto;html=1;exitX=0;exitY=0.5;exitDx=0;exitDy=0;entryX=1;entryY=0.5;entryDx=0;entryDy=0;strokeColor=#736CA8;fontColor=#1A1A1A;" edge="1" parent="1" source="Dr9B3RsP0FkyBoj9PpPU-37" target="Dr9B3RsP0FkyBoj9PpPU-10">
          <mxGeometry relative="1" as="geometry" />
        </mxCell>
        <mxCell id="Vi23y6AT9LJgRPBtpvE8-1" style="edgeStyle=orthogonalEdgeStyle;shape=link;rounded=0;orthogonalLoop=1;jettySize=auto;html=1;exitX=1;exitY=0.5;exitDx=0;exitDy=0;entryX=0;entryY=0.5;entryDx=0;entryDy=0;" edge="1" parent="1" source="Dr9B3RsP0FkyBoj9PpPU-37" target="Dr9B3RsP0FkyBoj9PpPU-15">
          <mxGeometry relative="1" as="geometry" />
        </mxCell>
        <mxCell id="Dr9B3RsP0FkyBoj9PpPU-37" value="Almacena" style="rhombus;whiteSpace=wrap;html=1;strokeColor=#C73500;fillColor=#fa6800;fontColor=#000000;fontSize=13;" vertex="1" parent="1">
          <mxGeometry x="925" y="340" width="80" height="80" as="geometry" />
        </mxCell>
        <mxCell id="Dr9B3RsP0FkyBoj9PpPU-43" value="username" style="ellipse;whiteSpace=wrap;html=1;align=center;strokeColor=#3A5431;fontColor=#ffffff;fillColor=#6d8764;fontSize=11;" vertex="1" parent="1">
          <mxGeometry x="-85" y="580" width="60" height="30" as="geometry" />
        </mxCell>
        <mxCell id="Dr9B3RsP0FkyBoj9PpPU-44" value="Nombre" style="ellipse;whiteSpace=wrap;html=1;align=center;strokeColor=#3A5431;fontColor=#ffffff;fillColor=#6d8764;fontSize=11;" vertex="1" parent="1">
          <mxGeometry x="-111" y="616" width="60" height="30" as="geometry" />
        </mxCell>
        <mxCell id="Dr9B3RsP0FkyBoj9PpPU-45" value="Apellido" style="ellipse;whiteSpace=wrap;html=1;align=center;strokeColor=#3A5431;fontColor=#ffffff;fillColor=#6d8764;fontSize=11;" vertex="1" parent="1">
          <mxGeometry x="-129" y="651" width="60" height="30" as="geometry" />
        </mxCell>
        <mxCell id="Dr9B3RsP0FkyBoj9PpPU-46" value="Email" style="ellipse;whiteSpace=wrap;html=1;align=center;strokeColor=#3A5431;fontColor=#ffffff;fillColor=#6d8764;fontSize=11;" vertex="1" parent="1">
          <mxGeometry x="-135" y="686" width="60" height="30" as="geometry" />
        </mxCell>
        <mxCell id="Dr9B3RsP0FkyBoj9PpPU-49" value="Contraseña" style="ellipse;whiteSpace=wrap;html=1;align=center;strokeColor=#3A5431;fontColor=#ffffff;fillColor=#6d8764;fontSize=11;" vertex="1" parent="1">
          <mxGeometry x="-103" y="757" width="60" height="30" as="geometry" />
        </mxCell>
        <mxCell id="Dr9B3RsP0FkyBoj9PpPU-50" value="RUT" style="ellipse;whiteSpace=wrap;html=1;align=center;strokeColor=#3A5431;fontColor=#ffffff;fillColor=#6d8764;fontSize=11;" vertex="1" parent="1">
          <mxGeometry x="-129" y="722" width="60" height="30" as="geometry" />
        </mxCell>
        <mxCell id="Dr9B3RsP0FkyBoj9PpPU-63" value="Nombre" style="ellipse;whiteSpace=wrap;html=1;align=center;strokeColor=#3A5431;fontColor=#ffffff;fillColor=#6d8764;fontSize=11;" vertex="1" parent="1">
          <mxGeometry x="15" y="980" width="60" height="30" as="geometry" />
        </mxCell>
        <mxCell id="Dr9B3RsP0FkyBoj9PpPU-67" style="edgeStyle=none;shape=link;rounded=0;orthogonalLoop=1;jettySize=auto;html=1;exitX=0.5;exitY=0;exitDx=0;exitDy=0;entryX=0.5;entryY=1;entryDx=0;entryDy=0;strokeColor=#736CA8;fontColor=#1A1A1A;" edge="1" parent="1" source="Dr9B3RsP0FkyBoj9PpPU-65" target="Dr9B3RsP0FkyBoj9PpPU-14">
          <mxGeometry relative="1" as="geometry" />
        </mxCell>
        <mxCell id="Dr9B3RsP0FkyBoj9PpPU-65" value="Asignado" style="rhombus;whiteSpace=wrap;html=1;strokeColor=#C73500;fillColor=#fa6800;fontColor=#000000;fontSize=13;" vertex="1" parent="1">
          <mxGeometry x="1165" y="107" width="80" height="80" as="geometry" />
        </mxCell>
        <mxCell id="Dr9B3RsP0FkyBoj9PpPU-69" style="edgeStyle=none;shape=link;rounded=0;orthogonalLoop=1;jettySize=auto;html=1;exitX=0.5;exitY=1;exitDx=0;exitDy=0;entryX=0.5;entryY=0;entryDx=0;entryDy=0;strokeColor=#736CA8;fontColor=#1A1A1A;" edge="1" parent="1" source="Dr9B3RsP0FkyBoj9PpPU-68" target="Dr9B3RsP0FkyBoj9PpPU-9">
          <mxGeometry relative="1" as="geometry" />
        </mxCell>
        <mxCell id="Dr9B3RsP0FkyBoj9PpPU-70" style="edgeStyle=none;shape=link;rounded=0;orthogonalLoop=1;jettySize=auto;html=1;exitX=0.5;exitY=0;exitDx=0;exitDy=0;entryX=0.5;entryY=1;entryDx=0;entryDy=0;strokeColor=#736CA8;fontColor=#1A1A1A;" edge="1" parent="1" source="Dr9B3RsP0FkyBoj9PpPU-68" target="Dr9B3RsP0FkyBoj9PpPU-8">
          <mxGeometry relative="1" as="geometry" />
        </mxCell>
        <mxCell id="Dr9B3RsP0FkyBoj9PpPU-68" value="Tiene" style="rhombus;whiteSpace=wrap;html=1;strokeColor=#C73500;fillColor=#fa6800;fontColor=#000000;fontSize=13;" vertex="1" parent="1">
          <mxGeometry x="365" y="167.5" width="80" height="80" as="geometry" />
        </mxCell>
        <mxCell id="Dr9B3RsP0FkyBoj9PpPU-73" style="edgeStyle=none;shape=link;rounded=0;orthogonalLoop=1;jettySize=auto;html=1;exitX=0.5;exitY=1;exitDx=0;exitDy=0;entryX=0.5;entryY=0;entryDx=0;entryDy=0;strokeColor=#736CA8;fontColor=#1A1A1A;" edge="1" parent="1" source="Dr9B3RsP0FkyBoj9PpPU-71" target="Dr9B3RsP0FkyBoj9PpPU-17">
          <mxGeometry relative="1" as="geometry" />
        </mxCell>
        <mxCell id="Dr9B3RsP0FkyBoj9PpPU-71" value="Tiene" style="rhombus;whiteSpace=wrap;html=1;strokeColor=#C73500;fillColor=#fa6800;fontColor=#000000;fontSize=13;" vertex="1" parent="1">
          <mxGeometry x="1100" y="510" width="80" height="80" as="geometry" />
        </mxCell>
        <mxCell id="Dr9B3RsP0FkyBoj9PpPU-114" style="edgeStyle=none;shape=link;rounded=0;orthogonalLoop=1;jettySize=auto;html=1;exitX=1;exitY=0.5;exitDx=0;exitDy=0;entryX=0;entryY=0.5;entryDx=0;entryDy=0;strokeColor=#736CA8;fontColor=#1A1A1A;" edge="1" parent="1" source="Dr9B3RsP0FkyBoj9PpPU-82" target="Dr9B3RsP0FkyBoj9PpPU-11">
          <mxGeometry relative="1" as="geometry" />
        </mxCell>
        <mxCell id="Dr9B3RsP0FkyBoj9PpPU-82" value="Ejecuta" style="rhombus;whiteSpace=wrap;html=1;strokeColor=#C73500;fillColor=#fa6800;fontColor=#000000;fontSize=13;" vertex="1" parent="1">
          <mxGeometry x="166" y="640" width="80" height="80" as="geometry" />
        </mxCell>
        <mxCell id="Dr9B3RsP0FkyBoj9PpPU-85" style="edgeStyle=none;shape=link;rounded=0;orthogonalLoop=1;jettySize=auto;html=1;exitX=0.5;exitY=1;exitDx=0;exitDy=0;entryX=0.5;entryY=0;entryDx=0;entryDy=0;strokeColor=#736CA8;fontColor=#1A1A1A;" edge="1" parent="1" source="Dr9B3RsP0FkyBoj9PpPU-83" target="Dr9B3RsP0FkyBoj9PpPU-11">
          <mxGeometry relative="1" as="geometry" />
        </mxCell>
        <mxCell id="Dr9B3RsP0FkyBoj9PpPU-83" value="Realiza" style="rhombus;whiteSpace=wrap;html=1;strokeColor=#C73500;fillColor=#fa6800;fontColor=#000000;fontSize=13;" vertex="1" parent="1">
          <mxGeometry x="365" y="510" width="80" height="80" as="geometry" />
        </mxCell>
        <mxCell id="Dr9B3RsP0FkyBoj9PpPU-91" style="edgeStyle=none;shape=link;rounded=0;orthogonalLoop=1;jettySize=auto;html=1;exitX=1;exitY=0.5;exitDx=0;exitDy=0;entryX=0;entryY=0.5;entryDx=0;entryDy=0;strokeColor=#736CA8;fontColor=#1A1A1A;" edge="1" parent="1" source="Dr9B3RsP0FkyBoj9PpPU-87" target="Dr9B3RsP0FkyBoj9PpPU-7">
          <mxGeometry relative="1" as="geometry" />
        </mxCell>
        <mxCell id="Dr9B3RsP0FkyBoj9PpPU-87" value="Tiene" style="rhombus;whiteSpace=wrap;html=1;strokeColor=#C73500;fillColor=#fa6800;fontColor=#000000;fontSize=13;" vertex="1" parent="1">
          <mxGeometry x="1445" y="340" width="80" height="80" as="geometry" />
        </mxCell>
        <mxCell id="Dr9B3RsP0FkyBoj9PpPU-94" value="Nombre" style="ellipse;whiteSpace=wrap;html=1;align=center;strokeColor=#3A5431;fontColor=#ffffff;fillColor=#6d8764;fontSize=11;" vertex="1" parent="1">
          <mxGeometry x="-129" y="110" width="60" height="30" as="geometry" />
        </mxCell>
        <mxCell id="Dr9B3RsP0FkyBoj9PpPU-95" value="Nombre" style="ellipse;whiteSpace=wrap;html=1;align=center;strokeColor=#3A5431;fontColor=#ffffff;fillColor=#6d8764;fontSize=11;" vertex="1" parent="1">
          <mxGeometry x="-129" y="-115" width="60" height="30" as="geometry" />
        </mxCell>
        <mxCell id="Dr9B3RsP0FkyBoj9PpPU-96" value="Nombre" style="ellipse;whiteSpace=wrap;html=1;align=center;strokeColor=#3A5431;fontColor=#ffffff;fillColor=#6d8764;fontSize=11;" vertex="1" parent="1">
          <mxGeometry x="-95" y="290" width="60" height="30" as="geometry" />
        </mxCell>
        <mxCell id="Dr9B3RsP0FkyBoj9PpPU-97" value="Dirección" style="ellipse;whiteSpace=wrap;html=1;align=center;strokeColor=#3A5431;fontColor=#ffffff;fillColor=#6d8764;fontSize=11;" vertex="1" parent="1">
          <mxGeometry x="-115" y="350" width="60" height="30" as="geometry" />
        </mxCell>
        <mxCell id="Dr9B3RsP0FkyBoj9PpPU-107" value="Nombre" style="ellipse;whiteSpace=wrap;html=1;align=center;strokeColor=#3A5431;fontColor=#ffffff;fillColor=#6d8764;fontSize=11;" vertex="1" parent="1">
          <mxGeometry x="1805" y="334" width="60" height="30" as="geometry" />
        </mxCell>
        <mxCell id="Dr9B3RsP0FkyBoj9PpPU-108" value="Descripción" style="ellipse;whiteSpace=wrap;html=1;align=center;strokeColor=#3A5431;fontColor=#ffffff;fillColor=#6d8764;fontSize=11;" vertex="1" parent="1">
          <mxGeometry x="1795" y="424" width="60" height="30" as="geometry" />
        </mxCell>
        <mxCell id="Dr9B3RsP0FkyBoj9PpPU-121" value="Nombre" style="ellipse;whiteSpace=wrap;html=1;align=center;strokeColor=#3A5431;fontColor=#ffffff;fillColor=#6d8764;fontSize=11;" vertex="1" parent="1">
          <mxGeometry x="465" y="2.5" width="60" height="30" as="geometry" />
        </mxCell>
        <mxCell id="Dr9B3RsP0FkyBoj9PpPU-122" value="Descripción" style="ellipse;whiteSpace=wrap;html=1;align=center;strokeColor=#3A5431;fontColor=#ffffff;fillColor=#6d8764;fontSize=11;" vertex="1" parent="1">
          <mxGeometry x="495" y="52.5" width="60" height="30" as="geometry" />
        </mxCell>
        <mxCell id="Dr9B3RsP0FkyBoj9PpPU-127" value="Nombre" style="ellipse;whiteSpace=wrap;html=1;align=center;strokeColor=#3A5431;fontColor=#ffffff;fillColor=#6d8764;fontSize=11;" vertex="1" parent="1">
          <mxGeometry x="340" y="255" width="60" height="30" as="geometry" />
        </mxCell>
        <mxCell id="Dr9B3RsP0FkyBoj9PpPU-128" value="Descripción" style="ellipse;whiteSpace=wrap;html=1;align=center;strokeColor=#3A5431;fontColor=#ffffff;fillColor=#6d8764;fontSize=11;" vertex="1" parent="1">
          <mxGeometry x="280" y="270" width="60" height="30" as="geometry" />
        </mxCell>
        <mxCell id="Dr9B3RsP0FkyBoj9PpPU-130" value="Patente" style="ellipse;whiteSpace=wrap;html=1;align=center;strokeColor=#3A5431;fontColor=#ffffff;fillColor=#6d8764;fontSize=11;" vertex="1" parent="1">
          <mxGeometry x="255" y="300" width="60" height="30" as="geometry" />
        </mxCell>
        <mxCell id="Dr9B3RsP0FkyBoj9PpPU-131" value="Chasis" style="ellipse;whiteSpace=wrap;html=1;align=center;strokeColor=#3A5431;fontColor=#ffffff;fillColor=#6d8764;fontSize=11;" vertex="1" parent="1">
          <mxGeometry x="280" y="410" width="60" height="30" as="geometry" />
        </mxCell>
        <mxCell id="Dr9B3RsP0FkyBoj9PpPU-132" value="Año" style="ellipse;whiteSpace=wrap;html=1;align=center;strokeColor=#3A5431;fontColor=#ffffff;fillColor=#6d8764;fontSize=11;" vertex="1" parent="1">
          <mxGeometry x="336" y="430" width="60" height="30" as="geometry" />
        </mxCell>
        <mxCell id="Dr9B3RsP0FkyBoj9PpPU-133" value="Imagen" style="ellipse;whiteSpace=wrap;html=1;align=center;strokeColor=#3A5431;fontColor=#ffffff;fillColor=#6d8764;fontSize=11;" vertex="1" parent="1">
          <mxGeometry x="475" y="420" width="60" height="30" as="geometry" />
        </mxCell>
        <mxCell id="Dr9B3RsP0FkyBoj9PpPU-140" style="edgeStyle=orthogonalEdgeStyle;curved=1;rounded=0;orthogonalLoop=1;jettySize=auto;html=1;exitX=0;exitY=0;exitDx=0;exitDy=0;entryX=0.967;entryY=0.767;entryDx=0;entryDy=0;entryPerimeter=0;strokeColor=#736CA8;fontColor=#1A1A1A;" edge="1" parent="1" source="Dr9B3RsP0FkyBoj9PpPU-9" target="Dr9B3RsP0FkyBoj9PpPU-128">
          <mxGeometry relative="1" as="geometry" />
        </mxCell>
        <mxCell id="Dr9B3RsP0FkyBoj9PpPU-146" value="Nombre" style="ellipse;whiteSpace=wrap;html=1;align=center;strokeColor=#3A5431;fontColor=#ffffff;fillColor=#6d8764;fontSize=11;" vertex="1" parent="1">
          <mxGeometry x="665" y="280" width="60" height="30" as="geometry" />
        </mxCell>
        <mxCell id="Dr9B3RsP0FkyBoj9PpPU-147" value="Descripción" style="ellipse;whiteSpace=wrap;html=1;align=center;strokeColor=#3A5431;fontColor=#ffffff;fillColor=#6d8764;fontSize=11;" vertex="1" parent="1">
          <mxGeometry x="745" y="255" width="60" height="30" as="geometry" />
        </mxCell>
        <mxCell id="Dr9B3RsP0FkyBoj9PpPU-148" value="Cantidad estimada" style="ellipse;whiteSpace=wrap;html=1;align=center;strokeColor=#3A5431;fontColor=#ffffff;fillColor=#6d8764;fontSize=11;" vertex="1" parent="1">
          <mxGeometry x="825" y="280" width="60" height="30" as="geometry" />
        </mxCell>
        <mxCell id="Dr9B3RsP0FkyBoj9PpPU-151" style="edgeStyle=orthogonalEdgeStyle;curved=1;rounded=0;orthogonalLoop=1;jettySize=auto;html=1;exitX=0.25;exitY=0;exitDx=0;exitDy=0;entryX=0.7;entryY=1.133;entryDx=0;entryDy=0;entryPerimeter=0;strokeColor=#736CA8;fontColor=#1A1A1A;" edge="1" parent="1" source="Dr9B3RsP0FkyBoj9PpPU-10" target="Dr9B3RsP0FkyBoj9PpPU-146">
          <mxGeometry relative="1" as="geometry" />
        </mxCell>
        <mxCell id="Dr9B3RsP0FkyBoj9PpPU-152" value="Día del mes" style="ellipse;whiteSpace=wrap;html=1;align=center;strokeColor=#3A5431;fontColor=#ffffff;fillColor=#6d8764;fontSize=11;" vertex="1" parent="1">
          <mxGeometry x="1145" y="-108" width="60" height="30" as="geometry" />
        </mxCell>
        <mxCell id="Dr9B3RsP0FkyBoj9PpPU-153" value="Nombre" style="ellipse;whiteSpace=wrap;html=1;align=center;strokeColor=#3A5431;fontColor=#ffffff;fillColor=#6d8764;fontSize=11;" vertex="1" parent="1">
          <mxGeometry x="1075" y="-65.5" width="60" height="30" as="geometry" />
        </mxCell>
        <mxCell id="Dr9B3RsP0FkyBoj9PpPU-154" value="Frecuencia" style="ellipse;whiteSpace=wrap;html=1;align=center;strokeColor=#3A5431;fontColor=#ffffff;fillColor=#6d8764;fontSize=11;" vertex="1" parent="1">
          <mxGeometry x="1220" y="-108" width="60" height="30" as="geometry" />
        </mxCell>
        <mxCell id="Dr9B3RsP0FkyBoj9PpPU-155" value="Notificación anticipada" style="ellipse;whiteSpace=wrap;html=1;align=center;strokeColor=#3A5431;fontColor=#ffffff;fillColor=#6d8764;fontSize=11;" vertex="1" parent="1">
          <mxGeometry x="1280" y="-73" width="60" height="30" as="geometry" />
        </mxCell>
        <mxCell id="Dr9B3RsP0FkyBoj9PpPU-156" style="edgeStyle=orthogonalEdgeStyle;curved=1;rounded=0;orthogonalLoop=1;jettySize=auto;html=1;exitX=0.25;exitY=0;exitDx=0;exitDy=0;entryX=0.999;entryY=0.927;entryDx=0;entryDy=0;entryPerimeter=0;strokeColor=#736CA8;fontColor=#1A1A1A;" edge="1" parent="1" source="Dr9B3RsP0FkyBoj9PpPU-14" target="Dr9B3RsP0FkyBoj9PpPU-153">
          <mxGeometry relative="1" as="geometry" />
        </mxCell>
        <mxCell id="Dr9B3RsP0FkyBoj9PpPU-158" style="edgeStyle=orthogonalEdgeStyle;curved=1;rounded=0;orthogonalLoop=1;jettySize=auto;html=1;exitX=0.75;exitY=0;exitDx=0;exitDy=0;entryX=0.389;entryY=1.151;entryDx=0;entryDy=0;entryPerimeter=0;strokeColor=#736CA8;fontColor=#1A1A1A;" edge="1" parent="1" source="Dr9B3RsP0FkyBoj9PpPU-14" target="Dr9B3RsP0FkyBoj9PpPU-154">
          <mxGeometry relative="1" as="geometry" />
        </mxCell>
        <mxCell id="Dr9B3RsP0FkyBoj9PpPU-159" style="edgeStyle=orthogonalEdgeStyle;curved=1;rounded=0;orthogonalLoop=1;jettySize=auto;html=1;exitX=1;exitY=0;exitDx=0;exitDy=0;entryX=0.319;entryY=0.932;entryDx=0;entryDy=0;entryPerimeter=0;strokeColor=#736CA8;fontColor=#1A1A1A;" edge="1" parent="1" source="Dr9B3RsP0FkyBoj9PpPU-14" target="Dr9B3RsP0FkyBoj9PpPU-155">
          <mxGeometry relative="1" as="geometry" />
        </mxCell>
        <mxCell id="Dr9B3RsP0FkyBoj9PpPU-164" value="Código" style="ellipse;whiteSpace=wrap;html=1;align=center;strokeColor=#3A5431;fontColor=#ffffff;fillColor=#6d8764;fontSize=11;" vertex="1" parent="1">
          <mxGeometry x="1135" y="232" width="60" height="30" as="geometry" />
        </mxCell>
        <mxCell id="Dr9B3RsP0FkyBoj9PpPU-165" value="Fecha de expiración" style="ellipse;whiteSpace=wrap;html=1;align=center;strokeColor=#3A5431;fontColor=#ffffff;fillColor=#6d8764;fontSize=11;" vertex="1" parent="1">
          <mxGeometry x="1085" y="257" width="70" height="30" as="geometry" />
        </mxCell>
        <mxCell id="Dr9B3RsP0FkyBoj9PpPU-166" value="Notificación expiración" style="ellipse;whiteSpace=wrap;html=1;align=center;strokeColor=#3A5431;fontColor=#ffffff;fillColor=#6d8764;fontSize=11;" vertex="1" parent="1">
          <mxGeometry x="1075" y="292" width="70" height="30" as="geometry" />
        </mxCell>
        <mxCell id="Dr9B3RsP0FkyBoj9PpPU-167" value="Horas para mantenimiento" style="ellipse;whiteSpace=wrap;html=1;align=center;strokeColor=#3A5431;fontColor=#ffffff;fillColor=#6d8764;fontSize=11;" vertex="1" parent="1">
          <mxGeometry x="1210" y="217" width="85" height="35" as="geometry" />
        </mxCell>
        <mxCell id="Dr9B3RsP0FkyBoj9PpPU-168" value="Horas de uso" style="ellipse;whiteSpace=wrap;html=1;align=center;strokeColor=#3A5431;fontColor=#ffffff;fillColor=#6d8764;fontSize=11;" vertex="1" parent="1">
          <mxGeometry x="1255" y="252" width="60" height="30" as="geometry" />
        </mxCell>
        <mxCell id="Dr9B3RsP0FkyBoj9PpPU-169" value="Horas de uso totales" style="ellipse;whiteSpace=wrap;html=1;align=center;strokeColor=#3A5431;fontColor=#ffffff;fillColor=#6d8764;fontSize=11;" vertex="1" parent="1">
          <mxGeometry x="1285" y="277" width="70" height="40" as="geometry" />
        </mxCell>
        <mxCell id="Dr9B3RsP0FkyBoj9PpPU-170" value="Última mantención" style="ellipse;whiteSpace=wrap;html=1;align=center;strokeColor=#3A5431;fontColor=#ffffff;fillColor=#6d8764;fontSize=11;" vertex="1" parent="1">
          <mxGeometry x="1315" y="312" width="60" height="30" as="geometry" />
        </mxCell>
        <mxCell id="Dr9B3RsP0FkyBoj9PpPU-171" value="Nombre" style="ellipse;whiteSpace=wrap;html=1;align=center;strokeColor=#3A5431;fontColor=#ffffff;fillColor=#6d8764;fontSize=11;" vertex="1" parent="1">
          <mxGeometry x="1040" y="394" width="60" height="30" as="geometry" />
        </mxCell>
        <mxCell id="Dr9B3RsP0FkyBoj9PpPU-172" value="Descripción" style="ellipse;whiteSpace=wrap;html=1;align=center;strokeColor=#3A5431;fontColor=#ffffff;fillColor=#6d8764;fontSize=11;" vertex="1" parent="1">
          <mxGeometry x="1040" y="430" width="60" height="30" as="geometry" />
        </mxCell>
        <mxCell id="Dr9B3RsP0FkyBoj9PpPU-173" value="Precio" style="ellipse;whiteSpace=wrap;html=1;align=center;strokeColor=#3A5431;fontColor=#ffffff;fillColor=#6d8764;fontSize=11;" vertex="1" parent="1">
          <mxGeometry x="1050" y="462" width="60" height="30" as="geometry" />
        </mxCell>
        <mxCell id="Dr9B3RsP0FkyBoj9PpPU-175" value="Marca" style="ellipse;whiteSpace=wrap;html=1;align=center;strokeColor=#3A5431;fontColor=#ffffff;fillColor=#6d8764;fontSize=11;" vertex="1" parent="1">
          <mxGeometry x="1340" y="390" width="60" height="30" as="geometry" />
        </mxCell>
        <mxCell id="Dr9B3RsP0FkyBoj9PpPU-176" value="Modelo" style="ellipse;whiteSpace=wrap;html=1;align=center;strokeColor=#3A5431;fontColor=#ffffff;fillColor=#6d8764;fontSize=11;" vertex="1" parent="1">
          <mxGeometry x="1325" y="424" width="60" height="30" as="geometry" />
        </mxCell>
        <mxCell id="Dr9B3RsP0FkyBoj9PpPU-177" value="Imagen" style="ellipse;whiteSpace=wrap;html=1;align=center;strokeColor=#3A5431;fontColor=#ffffff;fillColor=#6d8764;fontSize=11;" vertex="1" parent="1">
          <mxGeometry x="1315" y="460" width="60" height="30" as="geometry" />
        </mxCell>
        <mxCell id="Dr9B3RsP0FkyBoj9PpPU-179" style="edgeStyle=orthogonalEdgeStyle;rounded=0;orthogonalLoop=1;jettySize=auto;html=1;exitX=0;exitY=0;exitDx=0;exitDy=0;entryX=0.993;entryY=0.883;entryDx=0;entryDy=0;entryPerimeter=0;strokeColor=#736CA8;fontColor=#1A1A1A;curved=1;" edge="1" parent="1" source="Dr9B3RsP0FkyBoj9PpPU-15" target="Dr9B3RsP0FkyBoj9PpPU-165">
          <mxGeometry relative="1" as="geometry" />
        </mxCell>
        <mxCell id="Dr9B3RsP0FkyBoj9PpPU-183" style="edgeStyle=orthogonalEdgeStyle;rounded=0;orthogonalLoop=1;jettySize=auto;html=1;exitX=0.25;exitY=1;exitDx=0;exitDy=0;entryX=0.721;entryY=-0.075;entryDx=0;entryDy=0;entryPerimeter=0;strokeColor=#736CA8;fontColor=#1A1A1A;curved=1;" edge="1" parent="1" source="Dr9B3RsP0FkyBoj9PpPU-15" target="Dr9B3RsP0FkyBoj9PpPU-173">
          <mxGeometry relative="1" as="geometry" />
        </mxCell>
        <mxCell id="Dr9B3RsP0FkyBoj9PpPU-192" value="1" style="text;html=1;align=center;verticalAlign=middle;resizable=0;points=[];autosize=1;strokeColor=none;fillColor=none;fontColor=#1A1A1A;fontSize=16;fontStyle=1" vertex="1" parent="1">
          <mxGeometry x="25" y="-70" width="30" height="30" as="geometry" />
        </mxCell>
        <mxCell id="Dr9B3RsP0FkyBoj9PpPU-193" value="N" style="text;html=1;align=center;verticalAlign=middle;resizable=0;points=[];autosize=1;strokeColor=none;fillColor=none;fontColor=#1A1A1A;fontSize=16;fontStyle=1" vertex="1" parent="1">
          <mxGeometry x="25" y="60" width="40" height="30" as="geometry" />
        </mxCell>
        <mxCell id="Dr9B3RsP0FkyBoj9PpPU-194" value="N" style="text;html=1;align=center;verticalAlign=middle;resizable=0;points=[];autosize=1;strokeColor=none;fillColor=none;fontColor=#1A1A1A;fontSize=16;fontStyle=1" vertex="1" parent="1">
          <mxGeometry x="20" y="320" width="40" height="30" as="geometry" />
        </mxCell>
        <mxCell id="Dr9B3RsP0FkyBoj9PpPU-195" value="1" style="text;html=1;align=center;verticalAlign=middle;resizable=0;points=[];autosize=1;strokeColor=none;fillColor=none;fontColor=#1A1A1A;fontSize=16;fontStyle=1" vertex="1" parent="1">
          <mxGeometry x="25" y="150" width="30" height="30" as="geometry" />
        </mxCell>
        <mxCell id="Dr9B3RsP0FkyBoj9PpPU-196" value="N" style="text;html=1;align=center;verticalAlign=middle;resizable=0;points=[];autosize=1;strokeColor=none;fillColor=none;fontColor=#1A1A1A;fontSize=16;fontStyle=1" vertex="1" parent="1">
          <mxGeometry x="20" y="620" width="40" height="30" as="geometry" />
        </mxCell>
        <mxCell id="Dr9B3RsP0FkyBoj9PpPU-197" value="1" style="text;html=1;align=center;verticalAlign=middle;resizable=0;points=[];autosize=1;strokeColor=none;fillColor=none;fontColor=#1A1A1A;fontSize=16;fontStyle=1" vertex="1" parent="1">
          <mxGeometry x="25" y="410" width="30" height="30" as="geometry" />
        </mxCell>
        <mxCell id="Dr9B3RsP0FkyBoj9PpPU-198" value="1" style="text;html=1;align=center;verticalAlign=middle;resizable=0;points=[];autosize=1;strokeColor=none;fillColor=none;fontColor=#1A1A1A;fontSize=16;fontStyle=1" vertex="1" parent="1">
          <mxGeometry x="30" y="860" width="30" height="30" as="geometry" />
        </mxCell>
        <mxCell id="Dr9B3RsP0FkyBoj9PpPU-199" value="N" style="text;html=1;align=center;verticalAlign=middle;resizable=0;points=[];autosize=1;strokeColor=none;fillColor=none;fontColor=#1A1A1A;fontSize=16;fontStyle=1" vertex="1" parent="1">
          <mxGeometry x="25" y="710" width="40" height="30" as="geometry" />
        </mxCell>
        <mxCell id="Dr9B3RsP0FkyBoj9PpPU-200" value="1" style="text;html=1;align=center;verticalAlign=middle;resizable=0;points=[];autosize=1;strokeColor=none;fillColor=none;fontColor=#1A1A1A;fontSize=16;fontStyle=1" vertex="1" parent="1">
          <mxGeometry x="410" y="620" width="30" height="30" as="geometry" />
        </mxCell>
        <mxCell id="Dr9B3RsP0FkyBoj9PpPU-201" value="1" style="text;html=1;align=center;verticalAlign=middle;resizable=0;points=[];autosize=1;strokeColor=none;fillColor=none;fontColor=#1A1A1A;fontSize=16;fontStyle=1" vertex="1" parent="1">
          <mxGeometry x="410" y="410" width="30" height="30" as="geometry" />
        </mxCell>
        <mxCell id="Dr9B3RsP0FkyBoj9PpPU-203" value="1" style="text;html=1;align=center;verticalAlign=middle;resizable=0;points=[];autosize=1;strokeColor=none;fillColor=none;fontColor=#1A1A1A;fontSize=16;fontStyle=1" vertex="1" parent="1">
          <mxGeometry x="314" y="646" width="30" height="30" as="geometry" />
        </mxCell>
        <mxCell id="Dr9B3RsP0FkyBoj9PpPU-204" value="1" style="text;html=1;align=center;verticalAlign=middle;resizable=0;points=[];autosize=1;strokeColor=none;fillColor=none;fontColor=#1A1A1A;fontSize=16;fontStyle=1" vertex="1" parent="1">
          <mxGeometry x="85" y="646" width="30" height="30" as="geometry" />
        </mxCell>
        <mxCell id="Dr9B3RsP0FkyBoj9PpPU-205" value="1" style="text;html=1;align=center;verticalAlign=middle;resizable=0;points=[];autosize=1;strokeColor=none;fillColor=none;fontColor=#1A1A1A;fontSize=16;fontStyle=1" vertex="1" parent="1">
          <mxGeometry x="85" y="348" width="30" height="30" as="geometry" />
        </mxCell>
        <mxCell id="Dr9B3RsP0FkyBoj9PpPU-206" value="&lt;div&gt;N&lt;/div&gt;" style="text;html=1;align=center;verticalAlign=middle;resizable=0;points=[];autosize=1;strokeColor=none;fillColor=none;fontColor=#1A1A1A;fontSize=16;fontStyle=1" vertex="1" parent="1">
          <mxGeometry x="309" y="350" width="40" height="30" as="geometry" />
        </mxCell>
        <mxCell id="Dr9B3RsP0FkyBoj9PpPU-208" value="1" style="text;html=1;align=center;verticalAlign=middle;resizable=0;points=[];autosize=1;strokeColor=none;fillColor=none;fontColor=#1A1A1A;fontSize=16;fontStyle=1" vertex="1" parent="1">
          <mxGeometry x="410" y="112.5" width="30" height="30" as="geometry" />
        </mxCell>
        <mxCell id="Dr9B3RsP0FkyBoj9PpPU-209" value="N" style="text;html=1;align=center;verticalAlign=middle;resizable=0;points=[];autosize=1;strokeColor=none;fillColor=none;fontColor=#1A1A1A;fontSize=16;fontStyle=1" vertex="1" parent="1">
          <mxGeometry x="405" y="318" width="40" height="30" as="geometry" />
        </mxCell>
        <mxCell id="Dr9B3RsP0FkyBoj9PpPU-210" value="1" style="text;html=1;align=center;verticalAlign=middle;resizable=0;points=[];autosize=1;strokeColor=none;fillColor=none;fontColor=#1A1A1A;fontSize=16;fontStyle=1" vertex="1" parent="1">
          <mxGeometry x="465" y="347" width="30" height="30" as="geometry" />
        </mxCell>
        <mxCell id="Dr9B3RsP0FkyBoj9PpPU-211" value="N" style="text;html=1;align=center;verticalAlign=middle;resizable=0;points=[];autosize=1;strokeColor=none;fillColor=none;fontColor=#1A1A1A;fontSize=16;fontStyle=1" vertex="1" parent="1">
          <mxGeometry x="680" y="347" width="40" height="30" as="geometry" />
        </mxCell>
        <mxCell id="Dr9B3RsP0FkyBoj9PpPU-212" value="1" style="text;html=1;align=center;verticalAlign=middle;resizable=0;points=[];autosize=1;strokeColor=none;fillColor=none;fontColor=#1A1A1A;fontSize=16;fontStyle=1" vertex="1" parent="1">
          <mxGeometry x="835" y="348" width="30" height="30" as="geometry" />
        </mxCell>
        <mxCell id="Dr9B3RsP0FkyBoj9PpPU-213" value="N" style="text;html=1;align=center;verticalAlign=middle;resizable=0;points=[];autosize=1;strokeColor=none;fillColor=none;fontColor=#1A1A1A;fontSize=16;fontStyle=1" vertex="1" parent="1">
          <mxGeometry x="1110" y="352" width="40" height="30" as="geometry" />
        </mxCell>
        <mxCell id="Dr9B3RsP0FkyBoj9PpPU-215" value="N" style="text;html=1;align=center;verticalAlign=middle;resizable=0;points=[];autosize=1;strokeColor=none;fillColor=none;fontColor=#1A1A1A;fontSize=16;fontStyle=1" vertex="1" parent="1">
          <mxGeometry x="1200" y="320" width="40" height="30" as="geometry" />
        </mxCell>
        <mxCell id="Dr9B3RsP0FkyBoj9PpPU-216" value="1" style="text;html=1;align=center;verticalAlign=middle;resizable=0;points=[];autosize=1;strokeColor=none;fillColor=none;fontColor=#1A1A1A;fontSize=16;fontStyle=1" vertex="1" parent="1">
          <mxGeometry x="1210" y="42" width="30" height="30" as="geometry" />
        </mxCell>
        <mxCell id="Dr9B3RsP0FkyBoj9PpPU-217" value="N" style="text;html=1;align=center;verticalAlign=middle;resizable=0;points=[];autosize=1;strokeColor=none;fillColor=none;fontColor=#1A1A1A;fontSize=16;fontStyle=1" vertex="1" parent="1">
          <mxGeometry x="1255" y="352" width="40" height="30" as="geometry" />
        </mxCell>
        <mxCell id="Dr9B3RsP0FkyBoj9PpPU-220" style="edgeStyle=orthogonalEdgeStyle;curved=1;rounded=0;orthogonalLoop=1;jettySize=auto;html=1;exitX=1;exitY=0;exitDx=0;exitDy=0;entryX=-0.014;entryY=0.75;entryDx=0;entryDy=0;entryPerimeter=0;strokeColor=#736CA8;fontColor=#1A1A1A;" edge="1" parent="1" source="Dr9B3RsP0FkyBoj9PpPU-15" target="Dr9B3RsP0FkyBoj9PpPU-169">
          <mxGeometry relative="1" as="geometry" />
        </mxCell>
        <mxCell id="Dr9B3RsP0FkyBoj9PpPU-221" value="1" style="text;html=1;align=center;verticalAlign=middle;resizable=0;points=[];autosize=1;strokeColor=none;fillColor=none;fontColor=#1A1A1A;fontSize=16;fontStyle=1" vertex="1" parent="1">
          <mxGeometry x="1615" y="352" width="30" height="30" as="geometry" />
        </mxCell>
        <mxCell id="Dr9B3RsP0FkyBoj9PpPU-222" value="N" style="text;html=1;align=center;verticalAlign=middle;resizable=0;points=[];autosize=1;strokeColor=none;fillColor=none;fontColor=#1A1A1A;fontSize=16;fontStyle=1" vertex="1" parent="1">
          <mxGeometry x="1665" y="324" width="40" height="30" as="geometry" />
        </mxCell>
        <mxCell id="Dr9B3RsP0FkyBoj9PpPU-224" value="1" style="text;html=1;align=center;verticalAlign=middle;resizable=0;points=[];autosize=1;strokeColor=none;fillColor=none;fontColor=#1A1A1A;fontSize=16;fontStyle=1" vertex="1" parent="1">
          <mxGeometry x="1105" y="601" width="30" height="30" as="geometry" />
        </mxCell>
        <mxCell id="Dr9B3RsP0FkyBoj9PpPU-225" value="N" style="text;html=1;align=center;verticalAlign=middle;resizable=0;points=[];autosize=1;strokeColor=none;fillColor=none;fontColor=#1A1A1A;fontSize=16;fontStyle=1" vertex="1" parent="1">
          <mxGeometry x="1170" y="424" width="40" height="30" as="geometry" />
        </mxCell>
        <mxCell id="Dr9B3RsP0FkyBoj9PpPU-229" value="Nombre" style="ellipse;whiteSpace=wrap;html=1;align=center;strokeColor=#3A5431;fontColor=#ffffff;fillColor=#6d8764;fontSize=11;" vertex="1" parent="1">
          <mxGeometry x="980" y="610" width="60" height="30" as="geometry" />
        </mxCell>
        <mxCell id="Dr9B3RsP0FkyBoj9PpPU-230" value="Descripción" style="ellipse;whiteSpace=wrap;html=1;align=center;strokeColor=#3A5431;fontColor=#ffffff;fillColor=#6d8764;fontSize=11;" vertex="1" parent="1">
          <mxGeometry x="980" y="686" width="60" height="30" as="geometry" />
        </mxCell>
        <mxCell id="Dr9B3RsP0FkyBoj9PpPU-234" value="Hora de inicio" style="ellipse;whiteSpace=wrap;html=1;align=center;strokeColor=#3A5431;fontColor=#ffffff;fillColor=#6d8764;fontSize=11;" vertex="1" parent="1">
          <mxGeometry x="325" y="740" width="60" height="30" as="geometry" />
        </mxCell>
        <mxCell id="Dr9B3RsP0FkyBoj9PpPU-235" value="Hora de término" style="ellipse;whiteSpace=wrap;html=1;align=center;strokeColor=#3A5431;fontColor=#ffffff;fillColor=#6d8764;fontSize=11;" vertex="1" parent="1">
          <mxGeometry x="450" y="740" width="60" height="30" as="geometry" />
        </mxCell>
        <mxCell id="Dr9B3RsP0FkyBoj9PpPU-238" value="SISTEMA DE INVENTARIO PARA BOMBEROS - MODELO ENTIDAD RELACIÓN" style="text;html=1;align=center;verticalAlign=middle;resizable=0;points=[];autosize=1;strokeColor=none;fillColor=none;fontColor=#1A1A1A;fontSize=24;" vertex="1" parent="1">
          <mxGeometry x="415" y="-210" width="900" height="40" as="geometry" />
        </mxCell>
        <mxCell id="Vi23y6AT9LJgRPBtpvE8-6" style="edgeStyle=orthogonalEdgeStyle;shape=link;rounded=0;orthogonalLoop=1;jettySize=auto;html=1;exitX=0.5;exitY=1;exitDx=0;exitDy=0;entryX=0.5;entryY=0;entryDx=0;entryDy=0;" edge="1" parent="1" source="Vi23y6AT9LJgRPBtpvE8-3" target="Vi23y6AT9LJgRPBtpvE8-4">
          <mxGeometry relative="1" as="geometry" />
        </mxCell>
        <mxCell id="Vi23y6AT9LJgRPBtpvE8-3" value="Genera" style="rhombus;whiteSpace=wrap;html=1;strokeColor=#C73500;fillColor=#fa6800;fontColor=#000000;fontSize=13;" vertex="1" parent="1">
          <mxGeometry x="1240" y="510" width="80" height="80" as="geometry" />
        </mxCell>
        <mxCell id="Vi23y6AT9LJgRPBtpvE8-4" value="Préstamos de insumos" style="rounded=0;whiteSpace=wrap;html=1;labelBackgroundColor=none;fillColor=#5D7F99;strokeColor=#D0CEE2;fontColor=#1A1A1A;fontSize=16;fontStyle=1" vertex="1" parent="1">
          <mxGeometry x="1220" y="631" width="120" height="60" as="geometry" />
        </mxCell>
        <mxCell id="Vi23y6AT9LJgRPBtpvE8-12" value="1" style="text;html=1;align=center;verticalAlign=middle;resizable=0;points=[];autosize=1;strokeColor=none;fillColor=none;fontColor=#1A1A1A;fontSize=16;fontStyle=1" vertex="1" parent="1">
          <mxGeometry x="1250" y="601" width="30" height="30" as="geometry" />
        </mxCell>
        <mxCell id="Vi23y6AT9LJgRPBtpvE8-13" value="1" style="text;html=1;align=center;verticalAlign=middle;resizable=0;points=[];autosize=1;strokeColor=none;fillColor=none;fontColor=#1A1A1A;fontSize=16;fontStyle=1" vertex="1" parent="1">
          <mxGeometry x="1235" y="420" width="30" height="30" as="geometry" />
        </mxCell>
      </root>
    </mxGraphModel>
  </diagram>
</mxfile>
